<?xml version="1.0" encoding="UTF-8" standalone="no"?>
<!DOCTYPE svg PUBLIC "-//W3C//DTD SVG 1.1//EN"
 "http://www.w3.org/Graphics/SVG/1.1/DTD/svg11.dtd">
<!-- Generated by graphviz version 14.1.3 (20260303.0454)
 -->
<!-- Title: WorkflowNet Pages: 1 -->
<svg width="2196pt" height="504pt"
 viewBox="0.00 0.00 2196.00 504.00" xmlns="http://www.w3.org/2000/svg" xmlns:xlink="http://www.w3.org/1999/xlink">
<g id="graph0" class="graph" transform="scale(1 1) rotate(0) translate(4 500.29)">
<title>WorkflowNet</title>
<polygon fill="white" stroke="none" points="-4,4 -4,-500.29 2191.9,-500.29 2191.9,4 -4,4"/>
<text xml:space="preserve" text-anchor="middle" x="72.19" y="-479.69" font-family="Helvetica,sans-Serif" font-size="14.00">Factory workflow net</text>
<!-- p_0 -->
<g id="node1" class="node">
<title>p_0</title>
<ellipse fill="none" stroke="black" cx="104.15" cy="-234.69" rx="100.15" ry="100.15"/>
<ellipse fill="none" stroke="black" cx="104.15" cy="-234.69" rx="104.15" ry="104.15"/>
<text xml:space="preserve" text-anchor="middle" x="104.15" y="-230.49" font-family="Helvetica,sans-Serif" font-size="14.00">factory_event_intake</text>
</g>
<!-- t_0 -->
<g id="node6" class="node">
<title>t_0</title>
<path fill="none" stroke="black" d="M674,-255.49C674,-255.49 256.3,-255.49 256.3,-255.49 250.3,-255.49 244.3,-249.49 244.3,-243.49 244.3,-243.49 244.3,-225.89 244.3,-225.89 244.3,-219.89 250.3,-213.89 256.3,-213.89 256.3,-213.89 674,-213.89 674,-213.89 680,-213.89 686,-219.89 686,-225.89 686,-225.89 686,-243.49 686,-243.49 686,-249.49 680,-255.49 674,-255.49"/>
<text xml:space="preserve" text-anchor="middle" x="465.15" y="-238.89" font-family="Helvetica,sans-Serif" font-size="14.00">on_work_order_release_fabricate_enclosure_and_prepare_firmware</text>
<text xml:space="preserve" text-anchor="middle" x="465.15" y="-222.09" font-family="Helvetica,sans-Serif" font-size="14.00">priority 10</text>
</g>
<!-- p_0&#45;&gt;t_0 -->
<g id="edge1" class="edge">
<title>p_0&#45;&gt;t_0</title>
<path fill="none" stroke="black" d="M208.51,-234.69C216.34,-234.69 224.41,-234.69 232.64,-234.69"/>
<polygon fill="black" stroke="black" points="232.44,-238.19 242.44,-234.69 232.44,-231.19 232.44,-238.19"/>
</g>
<!-- t_1 -->
<g id="node7" class="node">
<title>t_1</title>
<path fill="none" stroke="black" d="M1355.23,-367.49C1355.23,-367.49 1039.48,-367.49 1039.48,-367.49 1033.48,-367.49 1027.48,-361.49 1027.48,-355.49 1027.48,-355.49 1027.48,-337.89 1027.48,-337.89 1027.48,-331.89 1033.48,-325.89 1039.48,-325.89 1039.48,-325.89 1355.23,-325.89 1355.23,-325.89 1361.23,-325.89 1367.23,-331.89 1367.23,-337.89 1367.23,-337.89 1367.23,-355.49 1367.23,-355.49 1367.23,-361.49 1361.23,-367.49 1355.23,-367.49"/>
<text xml:space="preserve" text-anchor="middle" x="1197.36" y="-350.89" font-family="Helvetica,sans-Serif" font-size="14.00">on_enclosure_milling_completed_record_fabrication</text>
<text xml:space="preserve" text-anchor="middle" x="1197.36" y="-334.09" font-family="Helvetica,sans-Serif" font-size="14.00">priority 6</text>
</g>
<!-- p_0&#45;&gt;t_1 -->
<g id="edge4" class="edge">
<title>p_0&#45;&gt;t_1</title>
<path fill="none" stroke="black" d="M198.21,-280.13C316.58,-335.16 528.86,-424.71 722,-458.69 812.03,-474.53 838.04,-476.63 927.67,-458.69 1009.21,-442.38 1096.92,-400.77 1149.19,-373.12"/>
<polygon fill="black" stroke="black" points="1150.66,-376.31 1157.83,-368.5 1147.36,-370.13 1150.66,-376.31"/>
</g>
<!-- t_2 -->
<g id="node8" class="node">
<title>t_2</title>
<path fill="none" stroke="black" d="M1349.79,-144.49C1349.79,-144.49 1044.93,-144.49 1044.93,-144.49 1038.93,-144.49 1032.93,-138.49 1032.93,-132.49 1032.93,-132.49 1032.93,-114.89 1032.93,-114.89 1032.93,-108.89 1038.93,-102.89 1044.93,-102.89 1044.93,-102.89 1349.79,-102.89 1349.79,-102.89 1355.79,-102.89 1361.79,-108.89 1361.79,-114.89 1361.79,-114.89 1361.79,-132.49 1361.79,-132.49 1361.79,-138.49 1355.79,-144.49 1349.79,-144.49"/>
<text xml:space="preserve" text-anchor="middle" x="1197.36" y="-127.89" font-family="Helvetica,sans-Serif" font-size="14.00">on_firmware_package_signed_record_preparation</text>
<text xml:space="preserve" text-anchor="middle" x="1197.36" y="-111.09" font-family="Helvetica,sans-Serif" font-size="14.00">priority 6</text>
</g>
<!-- p_0&#45;&gt;t_2 -->
<g id="edge7" class="edge">
<title>p_0&#45;&gt;t_2</title>
<path fill="none" stroke="black" d="M198.52,-189.54C316.99,-134.99 529.15,-46.34 722,-12.69 812.05,3.02 838.01,5.1 927.67,-12.69 1008.89,-28.81 1096.36,-69.86 1148.71,-97.26"/>
<polygon fill="black" stroke="black" points="1146.89,-100.26 1157.37,-101.84 1150.17,-94.07 1146.89,-100.26"/>
</g>
<!-- p_1 -->
<g id="node2" class="node">
<title>p_1</title>
<ellipse fill="none" stroke="black" cx="824.84" cy="-346.69" rx="102.83" ry="102.83"/>
<text xml:space="preserve" text-anchor="middle" x="824.84" y="-342.49" font-family="Helvetica,sans-Serif" font-size="14.00">enclosure_fabrication</text>
</g>
<!-- p_1&#45;&gt;t_1 -->
<g id="edge5" class="edge">
<title>p_1&#45;&gt;t_1</title>
<path fill="none" stroke="black" d="M927.57,-340.59C955.05,-340.14 985.63,-339.92 1016.03,-339.95"/>
<polygon fill="black" stroke="black" points="1015.69,-343.44 1025.7,-339.96 1015.7,-336.44 1015.69,-343.44"/>
</g>
<!-- t_3 -->
<g id="node9" class="node">
<title>t_3</title>
<path fill="none" stroke="black" d="M1419.05,-256.49C1419.05,-256.49 975.67,-256.49 975.67,-256.49 969.67,-256.49 963.67,-250.49 963.67,-244.49 963.67,-244.49 963.67,-226.89 963.67,-226.89 963.67,-220.89 969.67,-214.89 975.67,-214.89 975.67,-214.89 1419.05,-214.89 1419.05,-214.89 1425.05,-214.89 1431.05,-220.89 1431.05,-226.89 1431.05,-226.89 1431.05,-244.49 1431.05,-244.49 1431.05,-250.49 1425.05,-256.49 1419.05,-256.49"/>
<text xml:space="preserve" text-anchor="middle" x="1197.36" y="-239.89" font-family="Helvetica,sans-Serif" font-size="14.00">on_enclosure_fabricated_and_firmware_signed_perform_final_assembly</text>
<text xml:space="preserve" text-anchor="middle" x="1197.36" y="-223.09" font-family="Helvetica,sans-Serif" font-size="14.00">priority 12</text>
</g>
<!-- p_1&#45;&gt;t_3 -->
<g id="edge10" class="edge">
<title>p_1&#45;&gt;t_3</title>
<path fill="none" stroke="black" d="M923.67,-317.38C983.07,-299.59 1058.02,-277.14 1114.31,-260.27"/>
<polygon fill="black" stroke="black" points="1115.28,-263.64 1123.86,-257.41 1113.27,-256.93 1115.28,-263.64"/>
</g>
<!-- p_2 -->
<g id="node3" class="node">
<title>p_2</title>
<ellipse fill="none" stroke="black" cx="824.84" cy="-123.69" rx="102.28" ry="102.28"/>
<text xml:space="preserve" text-anchor="middle" x="824.84" y="-119.49" font-family="Helvetica,sans-Serif" font-size="14.00">firmware_preparation</text>
</g>
<!-- p_2&#45;&gt;t_2 -->
<g id="edge8" class="edge">
<title>p_2&#45;&gt;t_2</title>
<path fill="none" stroke="black" d="M927.08,-117.6C956.22,-117.11 988.87,-116.9 1021.11,-116.95"/>
<polygon fill="black" stroke="black" points="1020.97,-120.45 1030.98,-116.98 1020.99,-113.45 1020.97,-120.45"/>
</g>
<!-- p_2&#45;&gt;t_3 -->
<g id="edge11" class="edge">
<title>p_2&#45;&gt;t_3</title>
<path fill="none" stroke="black" d="M923.19,-153.12C983.01,-171.2 1058.76,-194.1 1115.31,-211.19"/>
<polygon fill="black" stroke="black" points="1113.96,-214.44 1124.54,-213.98 1115.98,-207.74 1113.96,-214.44"/>
</g>
<!-- p_3 -->
<g id="node4" class="node">
<title>p_3</title>
<ellipse fill="none" stroke="black" cx="1541.96" cy="-235.69" rx="74.91" ry="74.91"/>
<text xml:space="preserve" text-anchor="middle" x="1541.96" y="-231.49" font-family="Helvetica,sans-Serif" font-size="14.00">final_assembly</text>
</g>
<!-- t_4 -->
<g id="node10" class="node">
<title>t_4</title>
<path fill="none" stroke="black" d="M1986.84,-256.49C1986.84,-256.49 1664.87,-256.49 1664.87,-256.49 1658.87,-256.49 1652.87,-250.49 1652.87,-244.49 1652.87,-244.49 1652.87,-226.89 1652.87,-226.89 1652.87,-220.89 1658.87,-214.89 1664.87,-214.89 1664.87,-214.89 1986.84,-214.89 1986.84,-214.89 1992.84,-214.89 1998.84,-220.89 1998.84,-226.89 1998.84,-226.89 1998.84,-244.49 1998.84,-244.49 1998.84,-250.49 1992.84,-256.49 1986.84,-256.49"/>
<text xml:space="preserve" text-anchor="middle" x="1825.85" y="-239.89" font-family="Helvetica,sans-Serif" font-size="14.00">on_final_assembly_completed_mark_dispatch_ready</text>
<text xml:space="preserve" text-anchor="middle" x="1825.85" y="-223.09" font-family="Helvetica,sans-Serif" font-size="14.00">priority 1</text>
</g>
<!-- p_3&#45;&gt;t_4 -->
<g id="edge13" class="edge">
<title>p_3&#45;&gt;t_4</title>
<path fill="none" stroke="black" d="M1617.02,-235.69C1624.76,-235.69 1632.85,-235.69 1641.16,-235.69"/>
<polygon fill="black" stroke="black" points="1641.1,-239.19 1651.1,-235.69 1641.1,-232.19 1641.1,-239.19"/>
</g>
<!-- p_4 -->
<g id="node5" class="node">
<title>p_4</title>
<ellipse fill="none" stroke="black" cx="2111.37" cy="-235.69" rx="76.53" ry="76.53"/>
<text xml:space="preserve" text-anchor="middle" x="2111.37" y="-231.49" font-family="Helvetica,sans-Serif" font-size="14.00">dispatch_ready</text>
</g>
<!-- t_0&#45;&gt;p_1 -->
<g id="edge2" class="edge">
<title>t_0&#45;&gt;p_1</title>
<path fill="none" stroke="black" d="M533.85,-255.89C585.04,-271.92 656.37,-294.25 715.47,-312.76"/>
<polygon fill="black" stroke="black" points="714.32,-316.07 724.91,-315.72 716.41,-309.39 714.32,-316.07"/>
</g>
<!-- t_0&#45;&gt;p_2 -->
<g id="edge3" class="edge">
<title>t_0&#45;&gt;p_2</title>
<path fill="none" stroke="black" d="M534.69,-213.42C585.97,-197.51 657.09,-175.44 715.96,-157.17"/>
<polygon fill="black" stroke="black" points="716.84,-160.56 725.36,-154.25 714.77,-153.88 716.84,-160.56"/>
</g>
<!-- t_1&#45;&gt;p_1 -->
<g id="edge6" class="edge">
<title>t_1&#45;&gt;p_1</title>
<path fill="none" stroke="black" d="M1027.21,-353.42C997.3,-353.5 966.83,-353.35 938.95,-352.97"/>
<polygon fill="black" stroke="black" points="939.14,-349.47 929.09,-352.82 939.03,-356.47 939.14,-349.47"/>
</g>
<!-- t_2&#45;&gt;p_2 -->
<g id="edge9" class="edge">
<title>t_2&#45;&gt;p_2</title>
<path fill="none" stroke="black" d="M1032.5,-130.4C1000.68,-130.52 968.01,-130.37 938.31,-129.96"/>
<polygon fill="black" stroke="black" points="938.65,-126.46 928.6,-129.81 938.54,-133.46 938.65,-126.46"/>
</g>
<!-- t_3&#45;&gt;p_3 -->
<g id="edge12" class="edge">
<title>t_3&#45;&gt;p_3</title>
<path fill="none" stroke="black" d="M1431.14,-235.69C1439.53,-235.69 1447.69,-235.69 1455.53,-235.69"/>
<polygon fill="black" stroke="black" points="1455.26,-239.19 1465.26,-235.69 1455.26,-232.19 1455.26,-239.19"/>
</g>
<!-- t_4&#45;&gt;p_4 -->
<g id="edge14" class="edge">
<title>t_4&#45;&gt;p_4</title>
<path fill="none" stroke="black" d="M1999.13,-235.69C2007.39,-235.69 2015.5,-235.69 2023.35,-235.69"/>
<polygon fill="black" stroke="black" points="2023.13,-239.19 2033.13,-235.69 2023.13,-232.19 2023.13,-239.19"/>
</g>
</g>
</svg>
